# xmcd CD database file
#
# Track frame offsets:
#	150
#	24876
#	42071
#	73205
#	86987
#	100881
#	118140
#	148468
#	177878
#	205022
#	222628
#	231308
#	261693
#	283821
#	298066
#
# Disc length: 4219 seconds
#
# Revision: 0
# Processed by: cddbd v1.5.1PL0 Copyright (c) Steve Scherf et al.
# Submitted via: CDex 1.51
#
DISCID=fc10790f
DTITLE=Various Artist - Jazz Forever
DYEAR=2005
DGENRE=Jazz
TTITLE0=You'd Be So Nice To Come Home To - Art Pepper
TTITLE1=All the Things You Are - Sarah Vaughan
TTITLE2=Waltz for Debby - Bill Evans
TTITLE3=Mack the Knife - Kenny Dorham
TTITLE4=Linus and Lucy - Vince Guaraldi Trio
TTITLE5=The Girl From Ipanema - Ella Fitzgerald
TTITLE6=St. Thomas - Sonny Rollins
TTITLE7=Satin Doll - Barney Kessel
TTITLE8=My Funny Valentine - Miles Davis
TTITLE9=Young and Foolish - The Tony Bennett - Bill Evans Album
TTITLE10=O Barquinho - Charlie Byrd
TTITLE11=Stardust - Eddie Lockjaw Davis
TTITLE12=Midnight Blue - Kenny Burrell
TTITLE13=Blue Skies - Barbara Lea
TTITLE14=You and the Night and the Music - Cheat Baker
EXTD=YEAR: 2005
EXTT0=
EXTT1=
EXTT2=
EXTT3=
EXTT4=
EXTT5=
EXTT6=
EXTT7=
EXTT8=
EXTT9=
EXTT10=
EXTT11=
EXTT12=
EXTT13=
EXTT14=
PLAYORDER=
